HIERARCHY
ROOT Hips
{
	OFFSET 0.000000 0.000000 0.000000
	CHANNELS 6 Xposition Yposition Zposition Zrotation Yrotation Xrotation 
	JOINT LHipJoint
	{
		OFFSET 0.000000 0.000000 0.000000
		CHANNELS 3 Zrotation Yrotation Xrotation
		JOINT LeftUpLeg
		{
			OFFSET 1.363060 -1.794630 0.839290
			CHANNELS 3 Zrotation Yrotation Xrotation
			JOINT LeftLeg
			{
				OFFSET 2.448110 -6.726130 0.000000
				CHANNELS 3 Zrotation Yrotation Xrotation
				JOINT LeftFoot
				{
					OFFSET 2.562200 -7.039590 0.000000
					CHANNELS 3 Zrotation Yrotation Xrotation
					JOINT LeftToeBase
					{
						OFFSET 0.157640 -0.433110 2.322550
						CHANNELS 3 Zrotation Yrotation Xrotation
						End Site
						{
							OFFSET 0.000000 0.000000 0.000000
						}
					}
				}
			}
		}
	}
	JOINT RHipJoint
	{
		OFFSET 0.000000 0.000000 0.000000
		CHANNELS 3 Zrotation Yrotation Xrotation
		JOINT RightUpLeg
		{
			OFFSET -1.305520 -1.794630 0.839290
			CHANNELS 3 Zrotation Yrotation Xrotation
			JOINT RightLeg
			{
				OFFSET -2.542530 -6.985550 0.000000
				CHANNELS 3 Zrotation Yrotation Xrotation
				JOINT RightFoot
				{
					OFFSET -2.568260 -7.056230 0.000000
					CHANNELS 3 Zrotation Yrotation Xrotation
					JOINT RightToeBase
					{
						OFFSET -0.164730 -0.452590 2.363150
						CHANNELS 3 Zrotation Yrotation Xrotation
						End Site
						{
							OFFSET 0.000000 0.000000 0.000000
						}
					}
				}
			}
		}
	}
	JOINT LowerBack
	{
		OFFSET 0.000000 0.000000 0.000000
		CHANNELS 3 Zrotation Yrotation Xrotation
		JOINT Spine
		{
			OFFSET 0.028270 2.035590 -0.193380
			CHANNELS 3 Zrotation Yrotation Xrotation
			JOINT Spine1
			{
				OFFSET 0.056720 2.048850 -0.042750
				CHANNELS 3 Zrotation Yrotation Xrotation
				JOINT Neck
				{
					OFFSET 0.000000 0.000000 0.000000
					CHANNELS 3 Zrotation Yrotation Xrotation
					JOINT Neck1
					{
						OFFSET -0.054170 1.746240 0.172020
						CHANNELS 3 Zrotation Yrotation Xrotation
						JOINT Head
						{
							OFFSET 0.104070 1.761360 -0.123970
							CHANNELS 3 Zrotation Yrotation Xrotation
							End Site
							{
								OFFSET 0.000000 0.000000 0.000000
							}
						}
					}
				}
				JOINT LeftShoulder
				{
					OFFSET 0.000000 0.000000 0.000000
					CHANNELS 3 Zrotation Yrotation Xrotation
					JOINT LeftArm
					{
						OFFSET 3.362410 1.200890 -0.311210
						CHANNELS 3 Zrotation Yrotation Xrotation
						JOINT LeftForeArm
						{
							OFFSET 4.983000 -0.000000 -0.000000
							CHANNELS 3 Zrotation Yrotation Xrotation
							JOINT LeftHand
							{
								OFFSET 3.483560 -0.000000 -0.000000
								CHANNELS 3 Zrotation Yrotation Xrotation
								JOINT LeftFingerBase
								{
									OFFSET 0.000000 0.000000 0.000000
									CHANNELS 3 Zrotation Yrotation Xrotation
									JOINT LeftHandIndex1
									{
										OFFSET 0.715260 -0.000000 -0.000000
										CHANNELS 3 Zrotation Yrotation Xrotation
										End Site
										{
											OFFSET 0.000000 0.000000 0.000000
										}
									}
								}
								JOINT LThumb
								{
									OFFSET 0.000000 0.000000 0.000000
									CHANNELS 3 Zrotation Yrotation Xrotation
									End Site
									{
										OFFSET 0.000000 0.000000 0.000000
									}
								}
							}
						}
					}
				}
				JOINT RightShoulder
				{
					OFFSET 0.000000 0.000000 0.000000
					CHANNELS 3 Zrotation Yrotation Xrotation
					JOINT RightArm
					{
						OFFSET -3.136600 1.374050 -0.404650
						CHANNELS 3 Zrotation Yrotation Xrotation
						JOINT RightForeArm
						{
							OFFSET -5.241900 -0.000000 -0.000000
							CHANNELS 3 Zrotation Yrotation Xrotation
							JOINT RightHand
							{
								OFFSET -3.444170 -0.000000 -0.000000
								CHANNELS 3 Zrotation Yrotation Xrotation
								JOINT RightFingerBase
								{
									OFFSET 0.000000 0.000000 0.000000
									CHANNELS 3 Zrotation Yrotation Xrotation
									JOINT RightHandIndex1
									{
										OFFSET -0.622530 -0.000000 -0.000000
										CHANNELS 3 Zrotation Yrotation Xrotation
										End Site
										{
											OFFSET 0.000000 0.000000 0.000000
										}
									}
								}
								JOINT RThumb
								{
									OFFSET 0.000000 0.000000 0.000000
									CHANNELS 3 Zrotation Yrotation Xrotation
									End Site
									{
										OFFSET 0.000000 0.000000 0.000000
									}
								}
							}
						}
					}
				}
			}
		}
	}
}
MOTION
Frames: 5
Frame Time: 0.008333
51.391510 17.177305 -7.424304 -20.774173 -85.756347 19.394157 4.058581 1.889475 -0.752372 -21.692391 0.817330 -3.970097 0.821534 7.126030 21.794390 -0.136930 5.892844 -14.322038 0.001000 -0.206900 -0.568400 -7.996339 -2.257034 -2.431532 30.228978 2.634800 -5.110817 -3.446705 -10.499673 31.764388 -1.558270 -1.944817 -24.562157 -0.955600 -6.225000 17.438600 1.343903 0.025276 3.369778 0.724165 0.091725 -1.320015 0.570645 -0.325947 5.497101 -5.461001 -4.212946 -12.406946 6.513603 -5.371752 5.913328 2.572700 -2.403900 4.120600 -7.874169 -7.475631 1.071278 -78.327604 -0.997473 20.077380 12.657276 -20.672115 -3.340823 -1.203101 -0.723920 -8.725380 16.666617 15.344493 5.042400 -7.125000 0.000000 0.000000 -9.197900 46.329400 -0.304300 8.924801 7.112147 1.093623 74.257010 -0.512076 17.806206 -12.557545 22.310264 -3.184657 0.357596 -0.638940 -1.571307 -19.736939 3.180666 -1.409800 7.125000 0.000000 0.000000 4.954000 -25.866400 2.304500 
51.390480 17.177408 -7.423892 -20.526831 -85.767423 19.148562 4.057601 1.891735 -0.749593 -21.719406 0.807906 -3.957306 0.818812 7.119977 21.775906 -0.141053 5.927771 -14.338023 0.001300 -0.231500 -0.636100 -7.996833 -2.255606 -2.432873 30.201093 2.624474 -5.114441 -3.449033 -10.501969 31.774058 -1.576710 -1.860446 -24.635904 -0.940000 -6.175300 17.293900 1.325566 0.027679 3.366029 0.722078 0.095440 -1.323485 0.569909 -0.322897 5.477560 -5.460078 -4.206633 -12.374614 6.517047 -5.365796 5.911706 2.575200 -2.401400 4.111900 -7.874009 -7.475275 1.070661 -78.324344 -0.970566 20.100590 12.669274 -20.687935 -3.345046 -1.202326 -0.723066 -8.728603 16.678275 15.329693 5.040800 -7.125000 0.000000 0.000000 -9.183800 46.314900 -0.300500 8.924490 7.112504 1.093889 74.240011 -0.525526 17.807266 -12.551172 22.303629 -3.182436 0.357674 -0.638601 -1.579485 -19.728747 3.183708 -1.410100 7.125000 0.000000 0.000000 4.960200 -25.863800 2.307700 
51.388625 17.176481 -7.423789 -20.096075 -85.784991 18.712429 4.055734 1.896628 -0.747773 -21.757536 0.837569 -3.941624 0.816390 7.114693 21.758944 -0.144194 5.941485 -14.325846 0.001800 -0.270900 -0.744400 -7.995725 -2.251245 -2.438633 30.154278 2.590289 -5.113762 -3.451965 -10.503411 31.785223 -1.565257 -1.873186 -24.559237 -0.944900 -6.190800 17.339100 1.283446 0.024724 3.353245 0.720556 0.092184 -1.319700 0.585095 -0.326440 5.508816 -5.473999 -4.212598 -12.411890 6.518667 -5.370079 5.932814 2.577800 -2.402900 4.132700 -7.877998 -7.473796 1.070583 -78.319464 -1.030548 20.056459 12.650014 -20.661283 -3.336556 -1.200678 -0.720372 -8.694815 16.645110 15.286969 5.016700 -7.125000 0.000000 0.000000 -9.205300 46.265300 -0.289900 8.926191 7.112226 1.094797 74.207113 -0.510574 17.817390 -12.550797 22.303994 -3.182952 0.360132 -0.638019 -1.567303 -19.754938 3.143305 -1.397400 7.125000 0.000000 0.000000 4.939400 -25.906300 2.293000 
51.387595 17.176584 -7.423377 -19.977124 -85.791691 18.593837 4.055012 1.897861 -0.746403 -21.770763 0.836770 -3.930793 0.813900 7.108797 21.741881 -0.147489 5.958385 -14.318005 0.001900 -0.280600 -0.770900 -7.995282 -2.250903 -2.439788 30.135428 2.574126 -5.116725 -3.453963 -10.505876 31.794742 -1.572206 -1.830829 -24.579187 -0.942500 -6.183200 17.317000 1.273411 0.031616 3.341467 0.718463 0.101530 -1.321064 0.579725 -0.320831 5.500563 -5.456953 -4.212886 -12.381809 6.517240 -5.375263 5.928434 2.573000 -2.405800 4.121400 -7.878068 -7.472082 1.071269 -78.303582 -1.009204 20.079263 12.657828 -20.675410 -3.341966 -1.203846 -0.723783 -8.687722 16.670654 15.354383 5.046900 -7.125000 0.000000 0.000000 -9.196500 46.340600 -0.306800 8.927848 7.110570 1.095134 74.194602 -0.516436 17.801206 -12.532236 22.283233 -3.176926 0.359235 -0.638526 -1.557779 -19.751738 3.171610 -1.407600 7.125000 0.000000 0.000000 4.941700 -25.876200 2.297600 
51.386050 17.176481 -7.423171 -19.724399 -85.800322 18.337961 4.053599 1.900640 -0.744452 -21.793099 0.849755 -3.921285 0.811531 7.103125 21.724498 -0.153762 5.988006 -14.299370 0.002500 -0.326000 -0.895600 -7.994644 -2.249023 -2.442789 30.105848 2.548839 -5.117608 -3.456542 -10.508058 31.805608 -1.574830 -1.803303 -24.577831 -0.937900 -6.168600 17.274300 1.251276 0.034532 3.331469 0.716378 0.105863 -1.321046 0.580489 -0.318652 5.503489 -5.450273 -4.214666 -12.373857 6.516936 -5.379549 5.932411 2.570900 -2.408000 4.120800 -7.879561 -7.470771 1.071639 -78.291523 -1.016527 20.076765 12.653487 -20.671366 -3.340908 -1.204611 -0.723723 -8.670265 16.674972 15.361370 5.050500 -7.125000 0.000000 0.000000 -9.193900 46.348400 -0.308500 8.929226 7.109862 1.095596 74.177027 -0.515940 17.793985 -12.518626 22.268269 -3.172723 0.359428 -0.638958 -1.548179 -19.763244 3.180692 -1.411900 7.125000 0.000000 0.000000 4.932600 -25.865700 2.294500 
